<?xml version="1.0" standalone="no"?>
<!DOCTYPE svg PUBLIC "-//W3C//DTD SVG 20010904//EN" "http://www.w3.org/TR/2001/REC-SVG-20010904/DTD/svg10.dtd">
<svg version="1.0" xmlns="http://www.w3.org/2000/svg" width="470.000000pt" height="545.000000pt" viewBox="0 0 470.000000 545.000000" preserveAspectRatio="xMidYMid meet">

    <g transform="translate(0.000000,545.000000) scale(0.100000,-0.100000)" fill="#000000" stroke="none">
        <path d="M2010 5404 c-220 -47 -416 -231 -491 -459 -22 -66 -23 -89 -27 -398
l-3 -327 30 -30 c41 -41 91 -41 132 -1 27 27 29 35 29 100 l0 71 1410 0 1410
0 0 -1640 0 -1640 -1081 0 c-717 0 -1087 -3 -1099 -10 -28 -15 -39 -40 -66
-151 -61 -253 -180 -489 -323 -643 -65 -70 -78 -100 -64 -142 13 -38 46 -60
128 -86 l70 -22 1005 -4 c1130 -3 1094 -5 1249 70 68 32 101 57 171 127 101
101 149 184 180 312 20 83 20 115 20 2186 0 2340 5 2177 -69 2328 -90 182
-265 320 -456 360 -101 21 -2056 21 -2155 -1z m1347 -449 c32 -32 35 -40 30
-73 -4 -24 -17 -47 -37 -64 l-30 -28 -230 0 -230 0 -32 29 c-27 24 -33 36 -33
71 0 35 6 47 33 71 l32 29 231 0 231 0 35 -35z" />
        <path d="M4013 4176 c-23 -20 -28 -32 -28 -70 0 -44 3 -48 99 -145 64 -64 110
-103 129 -107 60 -13 117 37 117 103 0 21 -23 50 -108 135 -98 98 -111 108
-144 108 -25 0 -46 -8 -65 -24z" />
        <path d="M960 4171 c-96 -29 -171 -114 -186 -210 l-7 -41 -86 0 c-145 0 -208
-30 -253 -119 -25 -49 -28 -65 -28 -157 l0 -102 -27 -7 c-45 -10 -99 -51 -124
-92 -21 -33 -25 -54 -29 -156 l-5 -119 -36 -12 c-60 -21 -96 -53 -124 -111
-26 -51 -27 -61 -24 -172 4 -108 6 -122 32 -165 18 -31 44 -57 75 -75 l47 -28
293 -3 292 -3 0 -499 0 -499 -292 -3 -293 -3 -47 -28 c-31 -18 -57 -44 -75
-75 -27 -45 -28 -53 -28 -178 0 -128 1 -132 30 -179 28 -45 81 -83 137 -99 16
-5 18 -19 18 -113 0 -87 4 -114 21 -149 23 -48 67 -85 122 -103 l37 -13 0
-102 c0 -92 3 -108 27 -157 21 -40 40 -61 77 -84 45 -27 58 -30 155 -33 l107
-4 12 -51 c15 -62 49 -116 97 -152 60 -46 98 -54 261 -55 164 0 210 9 271 56
39 30 93 118 93 154 0 43 11 47 120 52 119 5 148 16 202 76 44 48 61 119 56
227 l-3 73 38 12 c49 14 106 65 128 115 14 31 19 65 19 148 0 106 0 107 24
107 30 0 81 35 120 83 30 38 31 41 34 164 5 160 0 181 -49 237 -62 71 -91 76
-411 76 l-268 0 0 500 0 500 268 0 c303 0 346 7 399 62 56 59 63 85 63 223 0
142 -8 170 -64 224 -18 18 -51 38 -72 46 l-39 13 -5 114 c-4 79 -11 122 -22
144 -23 42 -79 89 -122 104 l-36 12 0 78 c0 127 -15 177 -69 231 -55 56 -95
69 -212 69 -92 0 -99 4 -99 53 0 34 -54 120 -94 151 -63 48 -104 56 -270 55
-83 0 -162 -4 -176 -8z m715 -536 l0 -90 -529 -3 c-382 -1 -533 1 -542 9 -19
15 -20 165 -1 172 6 3 251 5 542 4 l530 -2 0 -90z m190 -375 l0 -85 -727 -3
-728 -2 0 90 0 90 728 -2 727 -3 0 -85z m180 -375 l0 -90 -899 -3 c-656 -1
-902 1 -912 9 -18 15 -19 150 -2 167 9 9 220 12 913 10 l900 -3 0 -90z m-7
-1484 c9 -5 12 -31 10 -92 l-3 -84 -899 -3 c-656 -1 -902 1 -912 9 -18 15 -19
150 -2 167 9 9 223 12 903 12 489 0 896 -4 903 -9z m-173 -461 l0 -85 -727 -3
-728 -2 0 90 0 90 728 -2 727 -3 0 -85z m-190 -375 l0 -90 -529 -3 c-382 -1
-533 1 -542 9 -15 12 -21 159 -7 172 3 4 248 6 542 5 l536 -3 0 -90z" />
        <path d="M3615 4135 c-19 -18 -25 -35 -25 -67 0 -42 2 -44 258 -301 141 -143
271 -265 287 -272 65 -28 130 15 130 86 0 39 -7 47 -271 309 -268 269 -270
270 -312 270 -32 0 -49 -6 -67 -25z" />
        <path d="M3031 3387 c-13 -6 -34 -25 -45 -40 -20 -27 -21 -41 -24 -393 -2
-336 -4 -364 -20 -364 -9 0 -103 -2 -209 -3 -176 -2 -194 -4 -220 -23 -56 -41
-63 -71 -63 -261 l0 -173 -207 0 c-191 0 -211 -2 -241 -20 -18 -11 -40 -36
-48 -55 -19 -45 -19 -185 0 -230 28 -65 112 -93 177 -60 32 17 69 69 69 98 0
15 13 17 125 17 l124 0 3 -267 c3 -261 4 -269 26 -300 47 -66 157 -66 206 0
21 28 21 39 24 523 l3 494 124 0 124 0 3 -492 3 -493 23 -32 c47 -66 157 -66
206 0 21 28 21 33 24 933 l2 904 125 0 125 0 2 -904 c3 -900 3 -905 24 -933
11 -15 40 -35 62 -43 37 -13 47 -13 84 0 22 8 51 28 62 43 21 28 21 36 24 713
l2 684 125 0 125 0 2 -684 c3 -677 3 -685 24 -713 49 -66 159 -66 206 0 l23
32 3 755 c2 551 -1 762 -9 783 -6 15 -25 39 -41 52 -29 25 -30 25 -243 25
l-214 0 -3 179 c-3 164 -5 182 -24 208 -38 51 -47 53 -359 53 -211 0 -297 -4
-314 -13z" />
    </g>
</svg>